<svg xmlns="http://www.w3.org/2000/svg" viewBox="0 0 800 360" fill="none">
  <defs><linearGradient id="bg" x2="1" y2="1"><stop stop-color="#F9FBFF"/><stop offset="1" stop-color="#E1ECFC"/></linearGradient><linearGradient id="blue" x2="1" y2="1"><stop stop-color="#72ADFF"/><stop offset="1" stop-color="#1769DF"/></linearGradient></defs><path fill="url(#bg)" d="M0 0h800v360H0z"/><circle cx="420" cy="178" r="135" fill="#fff" fill-opacity=".66"/><rect x="265" y="51" width="270" height="258" rx="17" fill="#fff" stroke="#D2DFF0" stroke-width="2"/><rect x="283" y="69" width="234" height="221" rx="10" fill="#EFF5FF"/><circle cx="400" cy="158" r="66" fill="url(#blue)"/><path d="M370 174c16-46 49-53 65-20 9 19 21 19 30 4-6 37-32 58-67 54-19-2-32-16-28-38Z" fill="#fff" fill-opacity=".85"/><path d="M381 145c11-18 31-28 50-26" stroke="#fff" stroke-width="5" stroke-linecap="round"/><rect x="319" y="238" width="162" height="9" rx="4.5" fill="#17365C"/><rect x="350" y="255" width="100" height="6" rx="3" fill="#B9C9DE"/>
  <path d="m193 83 15 36-16 47-29-13 11-49 19-21Z" fill="#F1C575"/><path d="m190 166-4 17 12-13" fill="#17365C"/><rect x="554" y="102" width="103" height="103" rx="17" fill="#fff" stroke="#D7E2F0"/><circle cx="605" cy="153" r="31" fill="#EEF4FD"/><path d="M605 122a31 31 0 0 1 27 47l-27-16v-31Z" fill="#1769DF"/><path d="M605 153h31a31 31 0 0 1-42 27l11-27Z" fill="#92BBF6"/><circle cx="605" cy="153" r="10" fill="#fff"/>
  <rect x="153" y="220" width="108" height="55" rx="13" fill="#fff" stroke="#D7E2F0"/><rect x="170" y="237" width="18" height="18" rx="5" fill="#1769DF"/><rect x="196" y="239" width="49" height="6" rx="3" fill="#8198B6"/><rect x="196" y="251" width="34" height="5" rx="2.5" fill="#C5D2E3"/><path d="m579 244 12 12 25-28" stroke="#1769DF" stroke-width="5" stroke-linecap="round" stroke-linejoin="round"/>
</svg>
